<svg xmlns="http://www.w3.org/2000/svg" viewBox="0 0 19.51 34.65"><defs><style>.cls-1{fill:#da9321;}</style></defs><g id="top"><path class="cls-1" d="M16.4,5.06c-.55-.33-1-.54-1.53-.87S14.29,3,14.21,2.42a12.18,12.18,0,0,0-.39-1.8A.88.88,0,0,0,12.71,0a.88.88,0,0,0-.58,1.11h0a.31.31,0,0,1,0,.07,12.31,12.31,0,0,1,.29,1.37c.07.5.19,1.16-.12,1.54a8.66,8.66,0,0,1-1.51.78A2.29,2.29,0,0,0,9.42,6.78a1.71,1.71,0,0,0,.15.71,7.18,7.18,0,0,1,3.69-1h.42a7.34,7.34,0,0,1,3.83,1.08,1.52,1.52,0,0,0,.14-.63A2.25,2.25,0,0,0,16.4,5.06Z"/><path class="cls-1" d="M13.35,7.67c-5.33.08-6.27,4.78-5.8,8.81.4,3.4.13,4.36-1.42,8.44C5.24,27.25,1.9,31.27.56,32.54-.93,34,.78,35.31,2.94,34.3c2.94-1.38,9.41-4.2,12.62-9.14,2-3.09,3.26-4.63,3.86-9C19.82,13.25,19.16,7.57,13.35,7.67Zm-2,9.72a4.54,4.54,0,0,1-1.69-3.11,4,4,0,0,1,1.69-3.18Z"/></g></svg>