<svg xmlns="http://www.w3.org/2000/svg" viewBox="0 0 29.55 30.05"><defs><style>.cls-1{opacity:0.72;}.cls-2{fill:#fff;}</style></defs><g id="top"><g class="cls-1"><path class="cls-2" d="M21.06,0H8.49A8.49,8.49,0,0,0,0,8.49V21.56a8.49,8.49,0,0,0,8.49,8.49H21.06a8.49,8.49,0,0,0,8.49-8.49V8.49A8.49,8.49,0,0,0,21.06,0ZM3,8.49A5.47,5.47,0,0,1,8.49,3H21.06a5.48,5.48,0,0,1,5.48,5.47V21.56A5.49,5.49,0,0,1,21.06,27H8.49A5.48,5.48,0,0,1,3,21.56Z"/><path class="cls-2" d="M14.78,22.77A7.74,7.74,0,1,0,7,15,7.75,7.75,0,0,0,14.78,22.77Zm0-13.07A5.33,5.33,0,1,1,9.45,15,5.33,5.33,0,0,1,14.78,9.7Z"/><circle class="cls-2" cx="22.74" cy="7.06" r="1.73"/></g></g></svg>