<svg xmlns="http://www.w3.org/2000/svg" xmlns:xlink="http://www.w3.org/1999/xlink" viewBox="0 0 30.8 30.8"><defs><style>.cls-1{fill:none;}.cls-2{opacity:0.06;}.cls-3{clip-path:url(#clip-path);}.cls-4{fill:#fff;opacity:0.72;}</style><clipPath id="clip-path"><rect class="cls-1" x="139.8" y="-245.18" width="364" height="341"/></clipPath></defs><g id="top"><g class="cls-2"><g class="cls-3"><image width="2709" height="1709" transform="translate(11.8 -393.18) scale(0.58)" xlink:href="../batic-OL-4-01.png"/></g></g><path class="cls-4" d="M30.8,15.4A15.4,15.4,0,1,1,15.4,0,15.39,15.39,0,0,1,30.8,15.4ZM12.58,23.52A10.49,10.49,0,0,0,23.14,13v-.48A7.68,7.68,0,0,0,25,10.56a7.54,7.54,0,0,1-2.13.58,3.72,3.72,0,0,0,1.63-2.06,7.42,7.42,0,0,1-2.36.91,3.64,3.64,0,0,0-2.71-1.17,3.72,3.72,0,0,0-3.71,3.71,3.33,3.33,0,0,0,.1.84A10.51,10.51,0,0,1,8.16,9.49a3.81,3.81,0,0,0-.5,1.87,3.69,3.69,0,0,0,1.66,3.08A3.55,3.55,0,0,1,7.64,14v0a3.72,3.72,0,0,0,3,3.64,3.93,3.93,0,0,1-1,.13,3.26,3.26,0,0,1-.7-.07,3.7,3.7,0,0,0,3.46,2.58A7.48,7.48,0,0,1,7.79,21.9a6.4,6.4,0,0,1-.88-.06,10.35,10.35,0,0,0,5.67,1.68"/></g></svg>