<svg xmlns="http://www.w3.org/2000/svg" xmlns:xlink="http://www.w3.org/1999/xlink" viewBox="0 0 82.81 32.02"><defs><style>.cls-1{fill:none;}.cls-2{opacity:0.1;}.cls-3{clip-path:url(#clip-path);}.cls-4{fill:#2c3437;}.cls-5{fill:#da9321;}.cls-6{fill:#c44035;}</style><clipPath id="clip-path"><rect class="cls-1" x="189.12" y="-377.73" width="1280" height="463"/></clipPath></defs><g id="top"><g class="cls-2"><g class="cls-3"><image width="2709" height="1709" transform="translate(64.12 -499.73) scale(0.58)" xlink:href="../batic-OL-4-yellow-01.png"/></g></g><path class="cls-4" d="M15.16,4.68c-.51-.31-.9-.5-1.42-.81s-.54-1.12-.61-1.63A11.77,11.77,0,0,0,12.77.57a.81.81,0,0,0-1-.53.82.82,0,0,0-.53,1h0a.31.31,0,0,1,0,.07,8.49,8.49,0,0,1,.26,1.26c.07.46.18,1.07-.11,1.43A8,8,0,0,1,10,4.55,2.09,2.09,0,0,0,8.71,6.26a1.38,1.38,0,0,0,.14.66A6.62,6.62,0,0,1,12.26,6h.38a6.67,6.67,0,0,1,3.54,1,1.29,1.29,0,0,0,.13-.58A2.06,2.06,0,0,0,15.16,4.68Z"/><path class="cls-4" d="M12.33,7.09C7.41,7.17,6.54,11.51,7,15.23c.37,3.14.12,4-1.32,7.8-.82,2.15-3.91,5.87-5.14,7-1.38,1.31.2,2.56,2.2,1.63,2.71-1.28,8.69-3.88,11.66-8.45,1.87-2.86,3-4.28,3.57-8.33C18.31,12.25,17.71,7,12.33,7.09Zm-1.87,9A4.21,4.21,0,0,1,8.89,13.2a3.7,3.7,0,0,1,1.56-2.94Z"/><path class="cls-5" d="M47.55,4.68c-.51-.31-.9-.5-1.42-.81s-.54-1.12-.61-1.63A11.77,11.77,0,0,0,45.16.57a.81.81,0,0,0-1-.53.82.82,0,0,0-.53,1h0a.31.31,0,0,1,0,.07,8.49,8.49,0,0,1,.26,1.26c.07.46.18,1.07-.11,1.43a8,8,0,0,1-1.39.72A2.09,2.09,0,0,0,41.1,6.26a1.38,1.38,0,0,0,.14.66A6.62,6.62,0,0,1,44.65,6H45a6.67,6.67,0,0,1,3.54,1,1.29,1.29,0,0,0,.13-.58A2.06,2.06,0,0,0,47.55,4.68Z"/><path class="cls-5" d="M44.72,7.09c-4.92.08-5.79,4.42-5.35,8.14.37,3.14.12,4-1.32,7.8-.82,2.15-3.91,5.87-5.14,7s.2,2.56,2.2,1.63c2.71-1.28,8.69-3.88,11.66-8.45,1.87-2.86,3-4.28,3.57-8.33C50.7,12.25,50.1,7,44.72,7.09Zm-1.87,9a4.21,4.21,0,0,1-1.57-2.88,3.7,3.7,0,0,1,1.56-2.94Z"/><path class="cls-6" d="M79.93,4.68c-.5-.31-.89-.5-1.41-.81S78,2.75,77.91,2.24A11.77,11.77,0,0,0,77.55.57a.81.81,0,0,0-1-.53.82.82,0,0,0-.53,1h0a.31.31,0,0,1,0,.07,8.49,8.49,0,0,1,.26,1.26c.07.46.18,1.07-.11,1.43a8,8,0,0,1-1.39.72,2.09,2.09,0,0,0-1.28,1.71,1.38,1.38,0,0,0,.14.66A6.62,6.62,0,0,1,77,6h.38A6.67,6.67,0,0,1,81,7a1.44,1.44,0,0,0,.13-.58A2.06,2.06,0,0,0,79.93,4.68Z"/><path class="cls-6" d="M77.11,7.09c-4.92.08-5.79,4.42-5.35,8.14.37,3.14.12,4-1.32,7.8-.82,2.15-3.91,5.87-5.14,7s.2,2.56,2.2,1.63c2.71-1.28,8.69-3.88,11.66-8.45,1.87-2.86,3-4.28,3.57-8.33C83.09,12.25,82.49,7,77.11,7.09Zm-1.88,9a4.22,4.22,0,0,1-1.56-2.88,3.7,3.7,0,0,1,1.56-2.94Z"/></g></svg>