<svg xmlns="http://www.w3.org/2000/svg" xmlns:xlink="http://www.w3.org/1999/xlink" viewBox="0 0 216.42 40.34"><defs><style>.cls-1{fill:none;}.cls-2{opacity:0.06;}.cls-3{clip-path:url(#clip-path);}.cls-4{fill:#fff;}.cls-5{opacity:0.91;}</style><clipPath id="clip-path"><rect class="cls-1" x="255.71" y="-125.04" width="364" height="341"/></clipPath></defs><g id="top"><g class="cls-2"><g class="cls-3"><image width="2709" height="1709" transform="translate(127.71 -273.04) scale(0.58)" xlink:href="../batic-OL-4-01.png"/></g></g><path class="cls-4" d="M2.64,32.85H2.7c.38-.41,2-2.05,2.38-2.42s.57-.62.57-.82a.2.2,0,0,0-.15-.22c-.11,0-.16-.05-.16-.12s.07-.1.18-.1l1.18,0,1.34,0c.11,0,.19,0,.19.1s-.06.12-.17.12a2.14,2.14,0,0,0-.66.13,3.4,3.4,0,0,0-1.2.82c-.37.33-2.07,1.94-2.42,2.34.41.52,2.65,2.86,3.09,3.27a5.84,5.84,0,0,0,1.56,1.18,1.66,1.66,0,0,0,.7.14c.09,0,.15,0,.15.12s-.06.12-.27.12H8a6.2,6.2,0,0,1-.79,0,2.4,2.4,0,0,1-1.48-.71c-.49-.43-2.68-3-2.93-3.31l-.11-.15H2.64v1c0,1,0,1.88,0,2.36,0,.31.13.52.41.57a3.69,3.69,0,0,0,.56,0,.16.16,0,0,1,.16.12c0,.08-.09.12-.22.12-.64,0-1.45,0-1.74,0s-1,0-1.44,0c-.14,0-.22,0-.22-.12s0-.12.18-.12a1.58,1.58,0,0,0,.41,0c.23,0,.29-.26.33-.58s0-1.34,0-2.35V32.36c0-1.67,0-2,0-2.33s-.13-.5-.49-.6a1.91,1.91,0,0,0-.46,0c-.11,0-.19,0-.19-.12s.09-.1.26-.1c.6,0,1.32,0,1.59,0l1.47,0c.17,0,.25,0,.25.1s-.07.12-.16.12a1.4,1.4,0,0,0-.33,0c-.31.05-.4.21-.42.6s0,.66,0,2.33Z"/><path class="cls-4" d="M10.53,34.73c-.07,0-.08,0-.11.08l-.6,1.48a1.9,1.9,0,0,0-.17.67c0,.2.1.31.45.31h.17c.14,0,.17,0,.17.12s-.07.12-.18.12c-.38,0-.91,0-1.27,0-.12,0-.73,0-1.33,0-.14,0-.2,0-.2-.12a.11.11,0,0,1,.13-.12h.33c.52-.08.72-.42.95-1l3-6.94c.13-.31.22-.44.34-.44s.22.11.33.35c.28.61,2.18,5.12,2.91,6.79.44,1,.76,1.14,1,1.18a2.37,2.37,0,0,0,.43,0q.15,0,.15.12c0,.09-.06.12-.49.12s-1.23,0-2.19,0c-.21,0-.34,0-.34-.09s0-.1.15-.12a.17.17,0,0,0,.1-.24l-.88-2.22a.11.11,0,0,0-.12-.08ZM13,34.12s.06,0,0-.06l-1.08-2.8s0-.11,0-.11-.05.07-.07.11L10.72,34c0,.06,0,.08,0,.08Z"/><path class="cls-4" d="M18.23,32.36c0-1.67,0-2,0-2.33s-.13-.5-.5-.6a1.82,1.82,0,0,0-.45,0c-.12,0-.19,0-.19-.12s.09-.1.26-.1c.59,0,1.32,0,1.54,0l1.71,0c2.06,0,2.42,1.06,2.42,1.65a2.44,2.44,0,0,1-1.28,1.93,2.73,2.73,0,0,1,2.1,2.38c0,1.18-.93,2.4-3,2.4-.13,0-.52,0-.91,0l-1,0h-.65l-.79,0c-.14,0-.22,0-.22-.12s0-.12.18-.12a1.45,1.45,0,0,0,.4,0c.23,0,.3-.26.34-.58s.05-1.34.05-2.35Zm1.48.18a.11.11,0,0,0,.08.12,2.8,2.8,0,0,0,.53,0,1.22,1.22,0,0,0,1.41-1.36,1.53,1.53,0,0,0-1.43-1.66,3.78,3.78,0,0,0-.49,0c-.08,0-.1.07-.1.18Zm0,3.24c0,.73,0,.95.4,1.09a2.06,2.06,0,0,0,.82.13,1.37,1.37,0,0,0,1.4-1.56,2.4,2.4,0,0,0-1.08-1.95,1.59,1.59,0,0,0-1-.29h-.5s-.06,0-.06.08Z"/><path class="cls-4" d="M27,34.73c-.06,0-.08,0-.1.08l-.61,1.48a1.9,1.9,0,0,0-.17.67c0,.2.1.31.45.31h.17c.15,0,.17,0,.17.12s-.06.12-.18.12c-.38,0-.91,0-1.27,0-.12,0-.73,0-1.32,0-.15,0-.21,0-.21-.12a.11.11,0,0,1,.13-.12h.34c.51-.08.71-.42.94-1l3-6.94c.13-.31.23-.44.34-.44s.22.11.34.35c.27.61,2.18,5.12,2.9,6.79.44,1,.77,1.14,1,1.18a2.37,2.37,0,0,0,.43,0c.11,0,.16,0,.16.12s-.07.12-.5.12-1.23,0-2.19,0c-.2,0-.33,0-.33-.09s0-.1.14-.12a.16.16,0,0,0,.1-.24l-.88-2.22a.1.1,0,0,0-.11-.08Zm2.44-.61c.05,0,.06,0,.05-.06l-1.08-2.8s0-.11-.05-.11-.05.07-.06.11L27.22,34c0,.06,0,.08,0,.08Z"/><path class="cls-4" d="M35.44,36c0,.86.17,1.12.39,1.19a1.75,1.75,0,0,0,.59.08c.13,0,.2,0,.2.12s-.11.12-.26.12c-.74,0-1.27,0-1.48,0s-.65,0-1.23,0c-.16,0-.26,0-.26-.12s.08-.12.18-.12a2.29,2.29,0,0,0,.52-.05c.3-.08.34-.38.35-1.33l.1-6.54c0-.22.08-.37.2-.37s.3.16.49.36,1.85,1.89,3.51,3.51c.78.77,2.3,2.32,2.47,2.48h0l-.12-4.9c0-.68-.12-.87-.39-1a1.76,1.76,0,0,0-.59-.07c-.15,0-.19-.05-.19-.12s.12-.1.29-.1c.6,0,1.2,0,1.45,0s.56,0,1.12,0c.15,0,.26,0,.26.1s-.07.12-.2.12a1.11,1.11,0,0,0-.35,0c-.31.09-.4.29-.41.91l-.13,7c0,.24-.09.35-.19.35a.65.65,0,0,1-.46-.24c-.71-.66-2.14-2-3.33-3.17s-2.45-2.53-2.67-2.73h0Z"/><path class="cls-4" d="M45.63,32.36c0-1.67,0-2,0-2.33s-.13-.5-.5-.6a1.82,1.82,0,0,0-.45,0c-.12,0-.19,0-.19-.12s.09-.1.25-.1c.6,0,1.43,0,1.73,0l1.45,0c.16,0,.23,0,.23.1s-.06.12-.2.12a1.29,1.29,0,0,0-.33,0c-.31.05-.4.21-.43.6s0,.66,0,2.33v2c0,.46,0,1,0,1.55a5.68,5.68,0,0,1-.27,1.95,4.63,4.63,0,0,1-2,2.1l-.57.28a.57.57,0,0,1-.24.05.1.1,0,0,1-.09-.1c0-.05.05-.1.25-.19a2.37,2.37,0,0,0,.54-.43c.87-.84.86-1.93.86-4.1Z"/><path class="cls-4" d="M51,34.73c-.07,0-.08,0-.11.08l-.6,1.48a1.9,1.9,0,0,0-.17.67c0,.2.1.31.45.31h.17c.14,0,.17,0,.17.12s-.07.12-.18.12c-.38,0-.91,0-1.27,0-.12,0-.73,0-1.33,0-.14,0-.2,0-.2-.12s0-.12.13-.12h.33c.52-.08.72-.42.95-1l3-6.94c.13-.31.22-.44.34-.44s.22.11.33.35c.28.61,2.18,5.12,2.91,6.79.44,1,.76,1.14,1,1.18a2.37,2.37,0,0,0,.43,0q.15,0,.15.12c0,.09-.06.12-.49.12s-1.23,0-2.19,0c-.21,0-.34,0-.34-.09s0-.1.15-.12a.17.17,0,0,0,.1-.24l-.88-2.22a.11.11,0,0,0-.12-.08Zm2.44-.61c.05,0,.06,0,.05-.06l-1.08-2.8s0-.11,0-.11,0,.07-.07.11L51.15,34c0,.06,0,.08,0,.08Z"/><path class="cls-4" d="M64.57,32.76s.07,0,.07-.08v-.23c0-1.67,0-2.07,0-2.42s-.13-.5-.49-.6a1.83,1.83,0,0,0-.44,0c-.13,0-.2,0-.2-.12s.08-.1.25-.1c.61,0,1.41,0,1.71,0l1.46,0c.17,0,.25,0,.25.1s-.08.12-.21.12a1.53,1.53,0,0,0-.33,0c-.3.05-.39.21-.42.6s0,.66,0,2.33V34.3c0,1,0,1.88,0,2.36,0,.31.1.52.45.57a3.6,3.6,0,0,0,.58,0c.12,0,.19.07.19.12s-.09.12-.24.12c-.74,0-1.49,0-1.8,0s-1.06,0-1.5,0c-.16,0-.25,0-.25-.12s.05-.12.18-.12a1.61,1.61,0,0,0,.42,0c.23,0,.3-.26.33-.58s.06-1.31.06-2.32v-.84a.08.08,0,0,0-.07-.07h-4.3a.07.07,0,0,0-.08.07v.84c0,1,0,1.85.06,2.33,0,.31.11.52.45.57a3.6,3.6,0,0,0,.58,0c.13,0,.18.07.18.12s-.09.12-.23.12c-.74,0-1.53,0-1.86,0s-1,0-1.46,0c-.14,0-.22,0-.22-.12s0-.12.18-.12a1.45,1.45,0,0,0,.4,0c.23,0,.3-.26.34-.58s0-1.34,0-2.35V32.36c0-1.67,0-2,0-2.33s-.13-.5-.5-.6a1.82,1.82,0,0,0-.45,0c-.12,0-.19,0-.19-.12s.09-.1.24-.1c.61,0,1.36,0,1.68,0l1.51,0c.16,0,.24,0,.24.1s-.07.12-.21.12a1.47,1.47,0,0,0-.33,0c-.31.05-.4.21-.42.6s0,.75,0,2.42v.23c0,.07,0,.08.08.08Z"/><path class="cls-4" d="M69.9,32.36c0-1.67,0-2,0-2.33s-.13-.5-.49-.6a1.91,1.91,0,0,0-.46,0c-.11,0-.19,0-.19-.12s.09-.1.26-.1c.59,0,1.32,0,1.64,0s2.9,0,3.11,0,.39-.06.49-.07a1.21,1.21,0,0,1,.18-.05c.06,0,.07.05.07.1a6,6,0,0,0-.09.72c0,.11,0,.59-.06.72s0,.18-.13.18-.09-.05-.09-.14a1.13,1.13,0,0,0-.08-.4c-.09-.19-.18-.35-.75-.4-.2,0-1.56-.05-1.79-.05-.05,0-.08,0-.08.1v2.72c0,.07,0,.12.08.12.26,0,1.74,0,2,0s.44,0,.54-.17.13-.14.18-.14.09.05.09.12,0,.24-.09.8c0,.22,0,.66,0,.74s0,.25-.12.25a.09.09,0,0,1-.1-.09,3.32,3.32,0,0,0,0-.41c-.06-.22-.21-.38-.63-.42-.21,0-1.51-.06-1.79-.06,0,0-.07.06-.07.12v.88c0,.38,0,1.31,0,1.64,0,.75.38.92,1.54.92a3.1,3.1,0,0,0,1.08-.15c.29-.13.42-.36.49-.81,0-.12.06-.17.13-.17s.11.14.11.26a7,7,0,0,1-.16,1.22c-.08.28-.18.28-.61.28-.85,0-1.54,0-2.1,0l-1.32,0h-.65l-.79,0c-.14,0-.22,0-.22-.12s0-.12.18-.12a1.45,1.45,0,0,0,.4,0c.24,0,.3-.26.34-.58s.05-1.34.05-2.35Z"/><path class="cls-4" d="M80.81,37.35c-.21-.09-.25-.16-.25-.44,0-.71,0-1.49.07-1.7s.05-.34.15-.34.13.12.13.22a2.57,2.57,0,0,0,.12.67,1.78,1.78,0,0,0,1.85,1.31,1.58,1.58,0,0,0,1.74-1.48c0-.64-.2-1.23-1.27-2.08l-.6-.46c-1.42-1.12-1.92-2-1.92-3.08,0-1.42,1.2-2.45,3-2.45a6.24,6.24,0,0,1,1.72.22c.12,0,.18.07.18.16s0,.54,0,1.56c0,.28,0,.38-.14.38s-.13-.07-.13-.23a1.56,1.56,0,0,0-.34-.85,1.62,1.62,0,0,0-1.41-.64,1.36,1.36,0,0,0-1.54,1.34c0,.59.29,1.05,1.37,1.86l.36.27C85.42,32.77,86,33.67,86,34.9a2.63,2.63,0,0,1-1.22,2.26,3.78,3.78,0,0,1-2.06.53A4.4,4.4,0,0,1,80.81,37.35Z"/><path class="cls-4" d="M89.3,34.73c-.07,0-.08,0-.1.08l-.61,1.48a1.9,1.9,0,0,0-.17.67c0,.2.1.31.45.31H89c.14,0,.17,0,.17.12s-.07.12-.18.12c-.38,0-.91,0-1.27,0-.12,0-.73,0-1.33,0-.14,0-.2,0-.2-.12a.11.11,0,0,1,.13-.12h.33c.52-.08.72-.42,1-1l3-6.94c.13-.31.22-.44.34-.44s.22.11.34.35c.27.61,2.17,5.12,2.9,6.79.44,1,.76,1.14,1,1.18a2.37,2.37,0,0,0,.43,0c.1,0,.16,0,.16.12s-.07.12-.5.12-1.23,0-2.19,0c-.21,0-.34,0-.34-.09s0-.1.15-.12.15-.11.1-.24l-.88-2.22a.11.11,0,0,0-.12-.08Zm2.44-.61c.05,0,.06,0,.05-.06l-1.08-2.8s0-.11,0-.11,0,.07-.06.11L89.49,34c0,.06,0,.08,0,.08Z"/><path class="cls-4" d="M97.43,29.21c0-.18.13-.29.22-.29s.19.06.35.35l3.06,6.15,3.06-6.22c.09-.18.19-.28.3-.28s.22.12.26.35l1,6.81c.11.69.21,1,.56,1.09a2.29,2.29,0,0,0,.65.1c.1,0,.18,0,.18.11s-.13.13-.3.13l-2.36-.08c-.27,0-.33-.07-.33-.13s0-.09.13-.12.09-.15.05-.46l-.64-4.78h0l-2.45,4.93c-.26.52-.32.62-.45.62s-.27-.22-.45-.55c-.28-.51-1.18-2.2-1.31-2.51s-.77-1.59-1.14-2.36h0l-.55,4.31a4.73,4.73,0,0,0,0,.52c0,.2.16.28.35.32a1.92,1.92,0,0,0,.41.05c.1,0,.18,0,.18.11s-.11.13-.28.13c-.47,0-1,0-1.2,0s-.77,0-1.13,0c-.12,0-.21,0-.21-.13s.07-.11.19-.11l.35,0c.31,0,.41-.48.46-.85Z"/><path class="cls-4" d="M109,32.36c0-1.67,0-2,0-2.33s-.13-.5-.49-.6a2,2,0,0,0-.46,0c-.12,0-.19,0-.19-.12s.09-.1.26-.1c.59,0,1.32,0,1.54,0l1.71,0c2.06,0,2.42,1.06,2.42,1.65a2.44,2.44,0,0,1-1.28,1.93,2.73,2.73,0,0,1,2.1,2.38c0,1.18-.93,2.4-3,2.4-.13,0-.52,0-.91,0l-1,0H109l-.79,0c-.14,0-.22,0-.22-.12s0-.12.18-.12a1.45,1.45,0,0,0,.4,0c.24,0,.3-.26.34-.58s0-1.34,0-2.35Zm1.48.18a.11.11,0,0,0,.08.12,2.8,2.8,0,0,0,.53,0,1.22,1.22,0,0,0,1.41-1.36A1.53,1.53,0,0,0,111,29.68a3.78,3.78,0,0,0-.49,0c-.08,0-.1.07-.1.18Zm0,3.24c0,.73,0,.95.4,1.09a2.06,2.06,0,0,0,.82.13,1.37,1.37,0,0,0,1.4-1.56A2.4,2.4,0,0,0,112,33.49a1.59,1.59,0,0,0-1-.29h-.5s-.06,0-.06.08Z"/><path class="cls-4" d="M117.76,34.73c-.06,0-.08,0-.1.08l-.61,1.48a1.9,1.9,0,0,0-.17.67c0,.2.1.31.45.31h.17c.15,0,.17,0,.17.12s-.06.12-.18.12c-.38,0-.91,0-1.27,0-.12,0-.73,0-1.32,0-.15,0-.21,0-.21-.12a.11.11,0,0,1,.13-.12h.34c.51-.08.71-.42.94-1l3-6.94c.13-.31.22-.44.34-.44s.22.11.34.35c.27.61,2.18,5.12,2.9,6.79.44,1,.77,1.14,1,1.18a2.37,2.37,0,0,0,.43,0c.11,0,.16,0,.16.12s-.07.12-.5.12-1.23,0-2.19,0c-.2,0-.33,0-.33-.09s0-.1.14-.12a.16.16,0,0,0,.1-.24l-.88-2.22a.1.1,0,0,0-.11-.08Zm2.44-.61s.06,0,0-.06l-1.08-2.8s0-.11,0-.11-.05.07-.06.11L118,34c0,.06,0,.08,0,.08Z"/><path class="cls-4" d="M127,34.3c0,1.42,0,2.12.25,2.32s.64.24,1.52.24c.61,0,1.05,0,1.33-.31a1.46,1.46,0,0,0,.29-.66c0-.11,0-.17.13-.17s.1.11.1.24a8.45,8.45,0,0,1-.17,1.27c-.08.25-.13.3-.72.3-.82,0-1.48,0-2,0l-1.52,0h-.65l-.79,0c-.14,0-.22,0-.22-.12s0-.12.18-.12a1.58,1.58,0,0,0,.41,0c.23,0,.29-.26.33-.58s0-1.34,0-2.35V32.36c0-1.67,0-2,0-2.33s-.13-.5-.49-.6a1.34,1.34,0,0,0-.38,0c-.13,0-.19,0-.19-.12s.08-.1.24-.1c.54,0,1.26,0,1.57,0l1.65,0c.17,0,.25,0,.25.1s-.07.12-.21.12a2.18,2.18,0,0,0-.44,0c-.31.05-.4.21-.43.6s0,.66,0,2.33Z"/><path class="cls-4" d="M137.29,34.12c-.07,0-.09,0-.12.11l-.7,1.85a2.47,2.47,0,0,0-.19.79c0,.23.11.4.52.4H137c.16,0,.2,0,.2.11s-.08.13-.22.13c-.42,0-1,0-1.38,0-.14,0-.85,0-1.53,0-.17,0-.24,0-.24-.13s.05-.11.15-.11l.4,0c.6-.08.85-.52,1.1-1.17l3.26-8.14c.15-.38.23-.52.36-.52s.2.12.32.42c.32.71,2.39,6,3.22,8,.49,1.16.87,1.35,1.14,1.41a2.71,2.71,0,0,0,.54.05c.11,0,.17,0,.17.11s-.11.13-.59.13-1.42,0-2.45,0c-.24,0-.39,0-.39-.1s0-.11.18-.12a.22.22,0,0,0,.12-.3l-1-2.75a.14.14,0,0,0-.13-.09Zm2.64-.65c.07,0,.08,0,.07-.07l-1.17-3.21c0-.05,0-.11-.06-.11s-.07.06-.08.11l-1.19,3.19c0,.06,0,.09.05.09Z"/><path class="cls-4" d="M146.3,36c0,.86.17,1.12.39,1.19a1.77,1.77,0,0,0,.6.08c.13,0,.19,0,.19.12s-.1.12-.26.12c-.74,0-1.27,0-1.48,0s-.64,0-1.23,0c-.15,0-.26,0-.26-.12s.08-.12.18-.12a2.24,2.24,0,0,0,.52-.05c.3-.08.34-.38.35-1.33l.11-6.54c0-.22.07-.37.19-.37s.3.16.49.36,1.86,1.89,3.52,3.51c.77.77,2.29,2.32,2.46,2.48h.05l-.12-4.9c0-.68-.11-.87-.38-1a1.79,1.79,0,0,0-.6-.07c-.14,0-.18-.05-.18-.12s.11-.1.28-.1c.6,0,1.21,0,1.46,0s.55,0,1.11,0c.16,0,.26,0,.26.1s-.07.12-.19.12a1.11,1.11,0,0,0-.35,0c-.32.09-.41.29-.42.91l-.13,7c0,.24-.09.35-.18.35a.67.67,0,0,1-.47-.24c-.71-.66-2.14-2-3.33-3.17s-2.45-2.53-2.67-2.73h0Z"/><path class="cls-4" d="M156.49,32.36c0-1.67,0-2,0-2.33s-.13-.5-.49-.6a1.91,1.91,0,0,0-.46,0c-.11,0-.19,0-.19-.12s.09-.1.26-.1c.6,0,1.32,0,1.65,0s1.16,0,1.85,0c1.42,0,3.34,0,4.59,1.26a3.86,3.86,0,0,1,1.07,2.8,4.28,4.28,0,0,1-1.24,3.07,5.3,5.3,0,0,1-3.82,1.3c-.42,0-.91,0-1.37-.07s-.86-.06-1.15-.06h-.65l-.79,0c-.14,0-.22,0-.22-.12s0-.12.18-.12a1.45,1.45,0,0,0,.4,0c.24,0,.3-.26.34-.58s.05-1.34.05-2.35ZM158,33.58c0,1.16,0,2,0,2.23a2,2,0,0,0,.13.78c.14.2.59.44,1.49.44a3.6,3.6,0,0,0,2.49-.76,3.35,3.35,0,0,0,1-2.73,3.61,3.61,0,0,0-1.06-2.75,4.63,4.63,0,0,0-3.19-1.05,2.49,2.49,0,0,0-.7.08c-.11,0-.14.09-.14.22,0,.38,0,1.28,0,2.15Z"/><path class="cls-4" d="M167.76,34.73c-.06,0-.08,0-.1.08l-.61,1.48a1.9,1.9,0,0,0-.17.67c0,.2.1.31.45.31h.17c.14,0,.17,0,.17.12s-.06.12-.18.12c-.38,0-.91,0-1.27,0-.12,0-.73,0-1.32,0-.15,0-.21,0-.21-.12a.11.11,0,0,1,.13-.12h.34c.51-.08.71-.42.94-1l3-6.94c.13-.31.22-.44.34-.44s.22.11.34.35c.27.61,2.17,5.12,2.9,6.79.44,1,.77,1.14,1,1.18a2.37,2.37,0,0,0,.43,0c.1,0,.16,0,.16.12s-.07.12-.5.12-1.23,0-2.19,0c-.2,0-.33,0-.33-.09s0-.1.14-.12.15-.11.1-.24l-.88-2.22a.11.11,0,0,0-.12-.08Zm2.44-.61c.05,0,.06,0,.05-.06l-1.08-2.8s0-.11,0-.11-.05.07-.06.11L168,34c0,.06,0,.08,0,.08Z"/><path class="cls-4" d="M177,34.3c0,1.42,0,2.12.25,2.32s.63.24,1.52.24c.6,0,1.05,0,1.33-.31a1.46,1.46,0,0,0,.29-.66c0-.11,0-.17.13-.17s.1.11.1.24a8.45,8.45,0,0,1-.17,1.27c-.08.25-.13.3-.73.3-.81,0-1.47,0-2,0l-1.52,0h-.65l-.79,0c-.14,0-.22,0-.22-.12s0-.12.18-.12a1.45,1.45,0,0,0,.4,0c.24,0,.3-.26.34-.58s.05-1.34.05-2.35V32.36c0-1.67,0-2,0-2.33s-.13-.5-.49-.6a1.38,1.38,0,0,0-.38,0c-.13,0-.19,0-.19-.12s.08-.1.24-.1c.54,0,1.26,0,1.57,0l1.65,0c.17,0,.24,0,.24.1s-.06.12-.2.12a2.18,2.18,0,0,0-.44,0c-.31.05-.41.21-.43.6s0,.66,0,2.33Z"/><path class="cls-4" d="M182.62,32.36c0-1.67,0-2,0-2.33s-.14-.51-.39-.59a1.42,1.42,0,0,0-.42-.05c-.11,0-.18,0-.18-.13s.09-.09.27-.09l1.53,0,1.47,0c.14,0,.23,0,.23.09s-.06.13-.18.13a1.37,1.37,0,0,0-.34,0c-.31.05-.4.21-.42.6s0,.66,0,2.33V34.3c0,1.07,0,2,0,2.42,0,.29.12.46.46.51a3.6,3.6,0,0,0,.58,0c.13,0,.18.07.18.12s-.09.12-.22.12c-.75,0-1.53,0-1.84,0s-1,0-1.49,0c-.14,0-.22,0-.22-.12s0-.12.18-.12a1.45,1.45,0,0,0,.4,0c.24,0,.3-.2.34-.53s.05-1.33.05-2.4Z"/><path class="cls-4" d="M188.33,29.21c0-.18.13-.29.22-.29s.19.06.35.35L192,35.42l3-6.22c.1-.18.2-.28.3-.28s.22.12.26.35l1,6.81c.1.69.21,1,.56,1.09a2.19,2.19,0,0,0,.64.1c.11,0,.19,0,.19.11s-.13.13-.3.13l-2.36-.08c-.27,0-.34-.07-.34-.13s.05-.09.13-.12.09-.15.05-.46l-.63-4.78h0l-2.45,4.93c-.26.52-.33.62-.45.62s-.28-.22-.46-.55c-.27-.51-1.18-2.2-1.31-2.51s-.76-1.59-1.14-2.36h0l-.54,4.31a3.12,3.12,0,0,0,0,.52c0,.2.15.28.35.32a1.85,1.85,0,0,0,.4.05c.1,0,.18,0,.18.11s-.1.13-.27.13c-.48,0-1,0-1.21,0s-.76,0-1.12,0c-.12,0-.21,0-.21-.13s.07-.11.18-.11l.35,0c.31,0,.42-.48.47-.85Z"/><path class="cls-4" d="M200.36,34.73c-.07,0-.08,0-.1.08l-.61,1.48a1.9,1.9,0,0,0-.17.67c0,.2.1.31.45.31h.17c.14,0,.17,0,.17.12s-.07.12-.18.12c-.38,0-.91,0-1.27,0-.12,0-.73,0-1.33,0-.14,0-.2,0-.2-.12a.11.11,0,0,1,.13-.12h.33c.52-.08.72-.42.95-1l3-6.94c.13-.31.22-.44.34-.44s.22.11.34.35c.27.61,2.17,5.12,2.9,6.79.44,1,.76,1.14,1,1.18a2.37,2.37,0,0,0,.43,0q.15,0,.15.12c0,.09-.06.12-.49.12s-1.23,0-2.19,0c-.21,0-.34,0-.34-.09s0-.1.15-.12A.17.17,0,0,0,204,37l-.88-2.22a.11.11,0,0,0-.12-.08Zm2.44-.61s.06,0,0-.06l-1.08-2.8s0-.11-.05-.11-.05.07-.06.11L200.55,34c0,.06,0,.08,0,.08Z"/><path class="cls-4" d="M208.77,36c0,.86.17,1.12.39,1.19a1.84,1.84,0,0,0,.6.08c.13,0,.19,0,.19.12s-.1.12-.26.12c-.73,0-1.27,0-1.47,0s-.65,0-1.24,0c-.15,0-.25,0-.25-.12s.07-.12.18-.12a2.35,2.35,0,0,0,.52-.05c.29-.08.33-.38.35-1.33l.1-6.54c0-.22.08-.37.19-.37s.3.16.5.36,1.85,1.89,3.51,3.51c.78.77,2.29,2.32,2.46,2.48h.05l-.11-4.9c0-.68-.12-.87-.39-1a1.79,1.79,0,0,0-.6-.07c-.14,0-.18-.05-.18-.12s.12-.1.29-.1c.59,0,1.2,0,1.45,0s.56,0,1.11,0c.16,0,.26,0,.26.1s-.06.12-.19.12a1.11,1.11,0,0,0-.35,0c-.31.09-.4.29-.42.91l-.13,7c0,.24-.09.35-.18.35a.65.65,0,0,1-.46-.24c-.72-.66-2.14-2-3.34-3.17s-2.45-2.53-2.67-2.73h0Z"/><g class="cls-5"><path class="cls-4" d="M.63,19.64c-.41-.18-.49-.31-.49-.88,0-1.43.1-3,.13-3.4s.1-.67.31-.67.26.23.26.44a5.39,5.39,0,0,0,.23,1.32,3.57,3.57,0,0,0,3.71,2.62,3.15,3.15,0,0,0,3.47-3c0-1.26-.39-2.46-2.54-4.14L4.52,11C1.67,8.81.68,7,.68,4.9c0-2.85,2.39-4.9,6-4.9a12.55,12.55,0,0,1,3.44.44c.24,0,.37.13.37.31,0,.34-.11,1.09-.11,3.11,0,.57-.08.78-.28.78s-.26-.16-.26-.47a3.11,3.11,0,0,0-.68-1.71A3.27,3.27,0,0,0,6.33,1.19c-1.92,0-3.08,1.12-3.08,2.67C3.25,5.05,3.84,6,6,7.59l.73.55C9.85,10.49,11,12.28,11,14.74a5.22,5.22,0,0,1-2.44,4.51,7.45,7.45,0,0,1-4.12,1.06A9,9,0,0,1,.63,19.64Z"/><path class="cls-4" d="M17.47,3.37c.05-.36.26-.57.44-.57s.39.1.7.7l6.12,12.28L30.84,3.34c.18-.36.39-.54.6-.54s.44.23.51.7L34,17.1c.2,1.37.41,2,1.11,2.18a4.48,4.48,0,0,0,1.3.2c.2,0,.36.08.36.21s-.26.26-.6.26c-.57,0-3.81-.1-4.71-.16-.55,0-.68-.13-.68-.26s.11-.18.26-.23.18-.31.11-.93L29.91,8.83h-.08l-4.9,9.85c-.52,1-.64,1.24-.9,1.24s-.55-.44-.91-1.11c-.55-1-2.36-4.38-2.62-5-.18-.42-1.53-3.19-2.28-4.72h-.08L17.06,17.7a6.11,6.11,0,0,0-.08,1c0,.42.31.57.7.65a3.69,3.69,0,0,0,.8.1c.21,0,.36.11.36.21s-.2.26-.54.26c-1,0-2-.08-2.41-.08s-1.53.08-2.25.08c-.24,0-.42-.05-.42-.26s.13-.21.36-.21a4.21,4.21,0,0,0,.7-.05c.63-.08.83-1,.94-1.68Z"/><path class="cls-4" d="M41.51,14.41c-.13,0-.15,0-.2.15l-1.22,3a3.89,3.89,0,0,0-.34,1.35c0,.39.21.62.91.62H41c.28,0,.33.11.33.24S41.2,20,41,20c-.75,0-1.81-.08-2.54-.08-.23,0-1.45.08-2.64.08-.29,0-.42-.05-.42-.23a.23.23,0,0,1,.26-.24l.68,0c1-.16,1.42-.83,1.89-1.95l6-13.86c.26-.62.44-.88.67-.88s.44.21.67.7c.55,1.22,4.36,10.24,5.81,13.58.88,2,1.53,2.28,1.94,2.36a5.68,5.68,0,0,0,.85.07c.21,0,.32.08.32.24s-.13.23-1,.23S51,20,49.05,19.9c-.41,0-.67,0-.67-.18s0-.21.28-.24a.34.34,0,0,0,.21-.49l-1.76-4.43a.21.21,0,0,0-.23-.15Zm4.88-1.22c.1,0,.12,0,.1-.13l-2.15-5.6c0-.08-.05-.21-.11-.21s-.1.13-.13.21L41.9,13c0,.11,0,.16.08.16Z"/><path class="cls-4" d="M59.93,4.64l-3.39.08c-1.32,0-1.87.18-2.2.67a2.55,2.55,0,0,0-.39.75c-.05.18-.1.28-.26.28s-.21-.12-.21-.36.44-2.48.5-2.67.13-.41.25-.41.42.18,1,.26a20.81,20.81,0,0,0,2.28.1h9.25a10.36,10.36,0,0,0,1.55-.1c.37-.05.55-.11.62-.11s.19.13.19.47-.06,2.1-.06,2.67c0,.23-.07.36-.2.36s-.24-.1-.26-.44l0-.23c0-.57-.65-1.24-2.69-1.27L63,4.64v8.91c0,2,0,3.76.13,4.71.08.63.21,1,.88,1.15a8.86,8.86,0,0,0,1.17.07c.26,0,.36.13.36.24s-.18.23-.44.23c-1.5,0-3-.08-3.68-.08s-2.07.08-3,.08c-.28,0-.44-.08-.44-.23s.08-.24.36-.24a3.41,3.41,0,0,0,.81-.07c.46-.11.59-.52.67-1.17.1-.93.1-2.67.1-4.69Z"/><path class="cls-4" d="M73.3,9.66c0-3.34,0-4,0-4.66s-.26-1-1-1.19a4.26,4.26,0,0,0-.9-.08c-.24,0-.39-.08-.39-.23s.18-.21.52-.21c1.19,0,2.64,0,3.11,0,.77,0,2.85,0,3.54,0a8,8,0,0,1,4.33.93,3.85,3.85,0,0,1,1.61,3c0,1.64-.94,3.09-3.16,4.87,2,2.49,3.62,4.49,5,5.86a4.29,4.29,0,0,0,2.43,1.45,2.2,2.2,0,0,0,.55.05.26.26,0,0,1,.28.24c0,.18-.15.23-.44.23H86.59a4.9,4.9,0,0,1-2.48-.44C83.12,19,82.27,18,81,16.27c-.91-1.19-1.87-2.67-2.15-3a.53.53,0,0,0-.42-.16l-2,0a.16.16,0,0,0-.18.18v.31c0,2,0,3.76.12,4.69.08.65.19,1.06.89,1.17a8.7,8.7,0,0,0,1.11.07.26.26,0,0,1,.28.24c0,.15-.18.23-.46.23-1.32,0-3.21-.08-3.55-.08s-1.89.08-2.8.08c-.28,0-.44-.08-.44-.23s.08-.24.36-.24a3.58,3.58,0,0,0,.81-.07c.46-.11.59-.52.67-1.17.1-.93.1-2.67.1-4.69Zm2.91,1.71c0,.24.05.31.2.39a6.11,6.11,0,0,0,1.74.21,2.28,2.28,0,0,0,1.6-.36,3.74,3.74,0,0,0,1.48-3.27c0-3.11-2.12-3.91-3.47-3.91a8.51,8.51,0,0,0-1.35.08c-.15,0-.2.13-.2.31Z"/><path class="cls-4" d="M92.06,14.41c-.13,0-.15,0-.21.15l-1.21,3a3.89,3.89,0,0,0-.34,1.35c0,.39.21.62.91.62h.33c.29,0,.34.11.34.24s-.13.23-.36.23c-.75,0-1.82-.08-2.54-.08-.24,0-1.45.08-2.64.08-.29,0-.42-.05-.42-.23a.23.23,0,0,1,.26-.24l.67,0c1-.16,1.43-.83,1.89-1.95l6-13.86c.26-.62.44-.88.68-.88s.44.21.67.7c.55,1.22,4.35,10.24,5.8,13.58.89,2,1.53,2.28,2,2.36a5.48,5.48,0,0,0,.85.07c.21,0,.31.08.31.24s-.13.23-1,.23-2.46,0-4.38-.05c-.41,0-.67,0-.67-.18s0-.21.28-.24a.34.34,0,0,0,.21-.49l-1.76-4.43a.22.22,0,0,0-.24-.15Zm4.87-1.22c.11,0,.13,0,.11-.13l-2.16-5.6c0-.08,0-.21-.1-.21s-.1.13-.13.21L92.45,13c0,.11,0,.16.08.16Z"/><path class="cls-4" d="M114.32,19.64c-.42-.18-.5-.31-.5-.88,0-1.43.11-3,.13-3.4s.11-.67.31-.67.26.23.26.44a5.45,5.45,0,0,0,.24,1.32,3.56,3.56,0,0,0,3.7,2.62,3.15,3.15,0,0,0,3.47-3c0-1.26-.39-2.46-2.54-4.14L118.2,11c-2.85-2.23-3.83-4-3.83-6.14,0-2.85,2.38-4.9,6-4.9a12.58,12.58,0,0,1,3.45.44c.23,0,.36.13.36.31,0,.34-.1,1.09-.1,3.11,0,.57-.08.78-.29.78s-.26-.16-.26-.47a3.16,3.16,0,0,0-.67-1.71A3.29,3.29,0,0,0,120,1.19c-1.92,0-3.09,1.12-3.09,2.67,0,1.19.6,2.1,2.75,3.73l.72.55c3.14,2.35,4.25,4.14,4.25,6.6a5.24,5.24,0,0,1-2.43,4.51,7.5,7.5,0,0,1-4.12,1.06A9,9,0,0,1,114.32,19.64Z"/><path class="cls-4" d="M131.29,14.41c-.13,0-.16,0-.21.15l-1.22,3a4.13,4.13,0,0,0-.34,1.35c0,.39.21.62.91.62h.34c.28,0,.33.11.33.24s-.12.23-.36.23c-.75,0-1.81-.08-2.54-.08-.23,0-1.45.08-2.64.08-.29,0-.41-.05-.41-.23a.22.22,0,0,1,.25-.24l.68,0c1-.16,1.42-.83,1.89-1.95l6-13.86c.26-.62.44-.88.67-.88s.44.21.68.7c.54,1.22,4.35,10.24,5.8,13.58.88,2,1.53,2.28,1.94,2.36a5.7,5.7,0,0,0,.86.07c.2,0,.31.08.31.24s-.13.23-1,.23-2.46,0-4.38-.05c-.41,0-.67,0-.67-.18s0-.21.29-.24a.34.34,0,0,0,.2-.49l-1.76-4.43a.21.21,0,0,0-.23-.15Zm4.87-1.22c.1,0,.13,0,.1-.13l-2.15-5.6c0-.08-.05-.21-.1-.21s-.11.13-.13.21L131.67,13c0,.11,0,.16.08.16Z"/><path class="cls-4" d="M147.53,3.37c.05-.36.26-.57.44-.57s.39.1.7.7l6.11,12.28L160.9,3.34c.18-.36.39-.54.6-.54s.44.23.51.7l2.08,13.6c.2,1.37.41,2,1.11,2.18a4.48,4.48,0,0,0,1.3.2c.2,0,.36.08.36.21s-.26.26-.6.26c-.57,0-3.81-.1-4.71-.16-.55,0-.68-.13-.68-.26s.11-.18.26-.23.18-.31.11-.93L160,8.83h-.08L155,18.68c-.52,1-.65,1.24-.9,1.24s-.55-.44-.91-1.11c-.55-1-2.36-4.38-2.62-5-.18-.42-1.53-3.19-2.28-4.72h-.08l-1.08,8.61a6.11,6.11,0,0,0-.08,1c0,.42.31.57.7.65a3.69,3.69,0,0,0,.8.1c.21,0,.36.11.36.21s-.2.26-.54.26c-1,0-2-.08-2.41-.08s-1.53.08-2.25.08c-.24,0-.42-.05-.42-.26s.13-.21.36-.21a4.21,4.21,0,0,0,.7-.05c.63-.08.83-1,.94-1.68Z"/><path class="cls-4" d="M170.59,9.66c0-3.34,0-4,0-4.66s-.26-1-1-1.19a4.3,4.3,0,0,0-.91-.08c-.23,0-.39-.08-.39-.23s.18-.21.52-.21c1.19,0,2.64,0,3.08,0,1.14,0,2.65,0,3.42,0,4.12,0,4.85,2.12,4.85,3.29a4.86,4.86,0,0,1-2.57,3.86c1.87.6,4.2,2.18,4.2,4.77,0,2.36-1.86,4.79-6.06,4.79-.26,0-1,0-1.81-.08L172,19.87c-.26,0-.75,0-1.29,0s-1.12.05-1.58.05c-.29,0-.44-.08-.44-.23s.07-.24.36-.24a3.48,3.48,0,0,0,.8-.07c.47-.11.6-.52.68-1.17.1-.93.1-2.67.1-4.69Zm2.95.37c0,.18.08.2.16.23a4.92,4.92,0,0,0,1.06.08,3,3,0,0,0,1.79-.39,2.91,2.91,0,0,0,1-2.33c0-1.48-.88-3.32-2.85-3.32a5.93,5.93,0,0,0-1,0c-.16,0-.21.13-.21.37Zm0,6.47c0,1.45.08,1.89.81,2.18a4.23,4.23,0,0,0,1.63.26c1.21,0,2.8-.68,2.8-3.11a4.81,4.81,0,0,0-2.15-3.91,3.23,3.23,0,0,0-2-.57h-1c-.08,0-.13,0-.13.15Z"/><path class="cls-4" d="M188.15,14.41c-.12,0-.15,0-.2.15l-1.22,3a4.13,4.13,0,0,0-.34,1.35c0,.39.21.62.91.62h.34c.28,0,.33.11.33.24s-.13.23-.36.23c-.75,0-1.81-.08-2.54-.08-.23,0-1.45.08-2.64.08-.29,0-.42-.05-.42-.23a.23.23,0,0,1,.26-.24l.68,0c1-.16,1.42-.83,1.89-1.95l6-13.86c.26-.62.44-.88.67-.88s.44.21.67.7c.55,1.22,4.36,10.24,5.81,13.58.88,2,1.53,2.28,1.94,2.36a5.7,5.7,0,0,0,.86.07c.2,0,.31.08.31.24s-.13.23-1,.23-2.46,0-4.38-.05c-.41,0-.67,0-.67-.18s0-.21.29-.24a.34.34,0,0,0,.2-.49l-1.76-4.43a.21.21,0,0,0-.23-.15ZM193,13.19c.1,0,.12,0,.1-.13L191,7.46c0-.08,0-.21-.1-.21s-.11.13-.13.21L188.54,13c0,.11,0,.16.08.16Z"/><path class="cls-4" d="M206.6,13.55c0,2.82,0,4.22.49,4.64s1.27.46,3,.46c1.21,0,2.09,0,2.66-.62a2.59,2.59,0,0,0,.57-1.32c0-.21.08-.34.26-.34s.21.24.21.5a17.23,17.23,0,0,1-.34,2.54c-.15.49-.26.59-1.45.59-1.63,0-2.95,0-4.09-.08s-2.1-.05-3-.05c-.26,0-.75,0-1.3,0S202.51,20,202,20c-.28,0-.44-.08-.44-.23s.08-.24.36-.24a3.58,3.58,0,0,0,.81-.07c.46-.11.59-.52.67-1.17.1-.93.1-2.67.1-4.69V9.66c0-3.34,0-4,0-4.66s-.26-1-1-1.19a3.07,3.07,0,0,0-.75-.08c-.26,0-.39-.08-.39-.23s.16-.21.5-.21c1.06,0,2.51,0,3.13,0s2.41,0,3.29,0c.34,0,.49,0,.49.21s-.13.23-.41.23a5.24,5.24,0,0,0-.88.08c-.62.1-.81.41-.86,1.19s-.05,1.32-.05,4.66Z"/></g></g></svg>