<svg xmlns="http://www.w3.org/2000/svg" xmlns:xlink="http://www.w3.org/1999/xlink" viewBox="0 0 29 29"><defs><style>.cls-1{fill:none;}.cls-2{opacity:0.06;}.cls-3{clip-path:url(#clip-path);}.cls-4{fill:#c44035;}</style><clipPath id="clip-path"><rect class="cls-1" x="-748.26" y="-528.69" width="364" height="341"/></clipPath></defs><g id="top"><g class="cls-2"><g class="cls-3"><image width="2709" height="1709" transform="translate(-876.26 -676.69) scale(0.58)" xlink:href="batic-OL-4-01.png"/></g></g><path class="cls-4" d="M20.67,0H8.34A8.27,8.27,0,0,0,0,8.2V20.8A8.27,8.27,0,0,0,8.34,29H20.67A8.27,8.27,0,0,0,29,20.8V8.2A8.27,8.27,0,0,0,20.67,0ZM3,8.2A5.34,5.34,0,0,1,8.34,2.91H20.67A5.34,5.34,0,0,1,26,8.2V20.8a5.34,5.34,0,0,1-5.37,5.29H8.34A5.34,5.34,0,0,1,3,20.8Z"/><path class="cls-4" d="M14.5,22a7.54,7.54,0,0,0,7.6-7.47,7.6,7.6,0,0,0-15.2,0A7.54,7.54,0,0,0,14.5,22Zm0-12.61A5.14,5.14,0,1,1,9.27,14.5,5.2,5.2,0,0,1,14.5,9.36Z"/><ellipse class="cls-4" cx="22.32" cy="6.81" rx="1.7" ry="1.67"/></g></svg>